# xmcd
#
# Track frame offsets:
#	150
#	15625
#	31164
#	48626
#	64652
#	78230
#	98097
#	114675
#	132364
#	151403
#	165887
#	178517
#	192571
#	207246
#	224249
#	225423
#	226461
#	227373
#
# Disc length: 3039 seconds
#
# Revision: 0
# Processed by: cddbd v1.5.2PL0 Copyright (c) Steve Scherf et al.
# Submitted via: audiograbber 1.83.01
#
DISCID=ea0bdd12
DTITLE=Various Artist - CDX 592
DYEAR=2014
DGENRE=Country
TTITLE0=Scotty McCreery - Feelin' It
TTITLE1=Cole Swindell - Hope You Get Lonely Tonight
TTITLE2=Luke Bryan - Play It Again
TTITLE3=Brothers Osborne - Rum
TTITLE4=Frankie Ballard - Sunshine (Whiskey Radio Edit
TTITLE5=Zane Williams - Little Too Late
TTITLE6=Austin Webb - Raise Em Up
TTITLE7=Tim Sweeney - Somebody To Love
TTITLE8=Jamie O'Neal - Wide Awake
TTITLE9=Allison Veltz - Bright Side
TTITLE10=Johnny Cash with June Carter Cash - Baby Ride Easy
TTITLE11=Johnny Cash - Out  Among The Stars
TTITLE12=Johnny Cash - She Used To Love Me A Lot
TTITLE13=Johnny Orr Band - Well Get By (The Autism Song
TTITLE14=Eileen Carey - My New Single (Liner
TTITLE15=Eileen Carey - Super Country (Liner
TTITLE16=Eileen Carey - Best In Country Music (Liner
TTITLE17=Eileen Carey - Today's Best Country (Liner
EXTD=
EXTT0=
EXTT1=
EXTT2=
EXTT3=
EXTT4=
EXTT5=
EXTT6=
EXTT7=
EXTT8=
EXTT9=
EXTT10=
EXTT11=
EXTT12=
EXTT13=
EXTT14=
EXTT15=
EXTT16=
EXTT17=
PLAYORDER=
